<svg width="145" height="70" viewBox="0 0 145 70" fill="none" xmlns="http://www.w3.org/2000/svg">
<path d="M0.0880001 3.344C0.621333 3.36533 1.336 3.38667 2.232 3.408C3.14933 3.42933 4.056 3.44 4.952 3.44C5.976 3.44 6.968 3.42933 7.928 3.408C8.888 3.38667 9.57067 3.376 9.976 3.376C12.9413 3.376 15.16 3.96267 16.632 5.136C18.104 6.30933 18.84 7.824 18.84 9.68C18.84 10.448 18.6907 11.2587 18.392 12.112C18.0933 12.944 17.5813 13.7227 16.856 14.448C16.152 15.152 15.1813 15.728 13.944 16.176C12.7067 16.624 11.1493 16.848 9.272 16.848H6.008V16.208H8.952C10.2107 16.208 11.16 15.92 11.8 15.344C12.4613 14.768 12.9093 14.0107 13.144 13.072C13.4 12.1333 13.528 11.12 13.528 10.032C13.528 8.00533 13.2293 6.49067 12.632 5.488C12.0347 4.48533 11.0107 3.984 9.56 3.984C8.728 3.984 8.184 4.16533 7.928 4.528C7.69333 4.89067 7.576 5.62667 7.576 6.736V22.416C7.576 23.248 7.66133 23.8667 7.832 24.272C8.00267 24.6773 8.33333 24.944 8.824 25.072C9.31467 25.2 10.04 25.2747 11 25.296V26C10.3387 25.9787 9.48533 25.9573 8.44 25.936C7.39467 25.9147 6.296 25.904 5.144 25.904C4.22667 25.904 3.33067 25.9147 2.456 25.936C1.58133 25.9573 0.792 25.9787 0.0880001 26V25.36C0.770667 25.3173 1.28267 25.232 1.624 25.104C1.96533 24.976 2.18933 24.72 2.296 24.336C2.424 23.952 2.488 23.376 2.488 22.608V6.736C2.488 5.94666 2.424 5.37067 2.296 5.008C2.18933 4.624 1.95467 4.368 1.592 4.24C1.25067 4.09067 0.749333 4.00533 0.0880001 3.984V3.344ZM24.428 1.2C25.324 1.2 26.028 1.424 26.54 1.872C27.0733 2.29867 27.34 2.896 27.34 3.664C27.34 4.432 27.0733 5.04 26.54 5.488C26.028 5.91467 25.324 6.128 24.428 6.128C23.532 6.128 22.8173 5.91467 22.284 5.488C21.772 5.04 21.516 4.432 21.516 3.664C21.516 2.896 21.772 2.29867 22.284 1.872C22.8173 1.424 23.532 1.2 24.428 1.2ZM26.924 9.104V23.024C26.924 23.92 27.0733 24.528 27.372 24.848C27.692 25.168 28.2253 25.328 28.972 25.328V26C28.588 25.9787 27.9907 25.9573 27.18 25.936C26.3693 25.8933 25.548 25.872 24.716 25.872C23.884 25.872 23.0413 25.8933 22.188 25.936C21.3347 25.9573 20.6947 25.9787 20.268 26V25.328C21.0147 25.328 21.5373 25.168 21.836 24.848C22.156 24.528 22.316 23.92 22.316 23.024V12.944C22.316 11.984 22.1667 11.28 21.868 10.832C21.5907 10.3627 21.0573 10.128 20.268 10.128V9.456C20.9507 9.52 21.612 9.552 22.252 9.552C23.148 9.552 23.98 9.52 24.748 9.456C25.5373 9.37067 26.2627 9.25333 26.924 9.104ZM42.2658 9.008C43.1618 9.008 43.8871 9.12533 44.4418 9.36C45.0178 9.57333 45.4658 9.872 45.7858 10.256C46.1271 10.6613 46.3724 11.184 46.5218 11.824C46.6924 12.464 46.7778 13.328 46.7778 14.416V23.024C46.7778 23.92 46.9271 24.528 47.2257 24.848C47.5458 25.168 48.0791 25.328 48.8258 25.328V26C48.4204 25.9787 47.8124 25.9573 47.0018 25.936C46.1911 25.8933 45.3911 25.872 44.6018 25.872C43.7911 25.872 42.9911 25.8933 42.2018 25.936C41.4338 25.9573 40.8471 25.9787 40.4418 26V25.328C41.0818 25.328 41.5298 25.168 41.7858 24.848C42.0418 24.528 42.1698 23.92 42.1698 23.024V13.072C42.1698 12.5387 42.1164 12.08 42.0098 11.696C41.9031 11.2907 41.7111 10.9813 41.4338 10.768C41.1564 10.5333 40.7404 10.416 40.1858 10.416C39.6098 10.416 39.0764 10.576 38.5858 10.896C38.1164 11.216 37.7324 11.664 37.4338 12.24C37.1564 12.7947 37.0178 13.424 37.0178 14.128V23.024C37.0178 23.92 37.1458 24.528 37.4018 24.848C37.6791 25.168 38.1271 25.328 38.7458 25.328V26C38.3618 25.9787 37.7964 25.9573 37.0498 25.936C36.3244 25.8933 35.5671 25.872 34.7778 25.872C33.9671 25.872 33.1351 25.8933 32.2818 25.936C31.4284 25.9573 30.7884 25.9787 30.3618 26V25.328C31.1084 25.328 31.6311 25.168 31.9298 24.848C32.2498 24.528 32.4098 23.92 32.4098 23.024V12.944C32.4098 11.984 32.2604 11.28 31.9618 10.832C31.6844 10.3627 31.1511 10.128 30.3618 10.128V9.456C31.0444 9.52 31.7058 9.552 32.3458 9.552C33.2418 9.552 34.0738 9.52 34.8418 9.456C35.6311 9.37067 36.3564 9.25333 37.0178 9.104V11.984C37.5511 10.896 38.2764 10.128 39.1938 9.68C40.1111 9.232 41.1351 9.008 42.2658 9.008ZM58.274 9.008C60.1513 9.008 61.6233 9.56267 62.69 10.672C63.7567 11.7813 64.29 13.5947 64.29 16.112H53.762L53.698 15.504H60.258C60.2793 14.4587 60.2153 13.4987 60.066 12.624C59.9167 11.728 59.682 11.0133 59.362 10.48C59.042 9.94667 58.6153 9.68 58.082 9.68C57.3353 9.68 56.6953 10.1493 56.162 11.088C55.65 12.0267 55.3407 13.584 55.234 15.76L55.33 15.952C55.3087 16.208 55.2873 16.4747 55.266 16.752C55.266 17.0293 55.266 17.3173 55.266 17.616C55.266 19.088 55.4687 20.2827 55.874 21.2C56.3007 22.1173 56.834 22.7893 57.474 23.216C58.114 23.6213 58.7647 23.824 59.426 23.824C59.874 23.824 60.3327 23.76 60.802 23.632C61.2927 23.4827 61.7833 23.2267 62.274 22.864C62.7647 22.48 63.2233 21.9467 63.65 21.264L64.226 21.456C63.97 22.2667 63.5647 23.056 63.01 23.824C62.4553 24.592 61.7513 25.2213 60.898 25.712C60.0447 26.2027 59.0207 26.448 57.826 26.448C56.3753 26.448 55.0953 26.1387 53.986 25.52C52.8767 24.9013 52.002 23.9627 51.362 22.704C50.7433 21.4453 50.434 19.8453 50.434 17.904C50.434 15.92 50.7647 14.2667 51.426 12.944C52.1087 11.6213 53.0367 10.64 54.21 10C55.4047 9.33867 56.7593 9.008 58.274 9.008ZM70.559 26.224C69.599 26.224 68.799 26.0427 68.159 25.68C67.519 25.3173 67.0497 24.8373 66.751 24.24C66.4523 23.6213 66.303 22.9493 66.303 22.224C66.303 21.3067 66.5057 20.56 66.911 19.984C67.3377 19.408 67.8817 18.9387 68.543 18.576C69.2043 18.2133 69.8977 17.9147 70.623 17.68C71.3697 17.4453 72.0737 17.2213 72.735 17.008C73.4177 16.7733 73.9617 16.5067 74.367 16.208C74.7937 15.888 75.007 15.4827 75.007 14.992V12.496C75.007 11.9413 74.911 11.4507 74.719 11.024C74.5483 10.576 74.271 10.2347 73.887 10C73.5243 9.76533 73.0443 9.648 72.447 9.648C72.0203 9.648 71.5937 9.712 71.167 9.84C70.7403 9.94667 70.3883 10.1387 70.111 10.416C70.7083 10.6293 71.167 10.96 71.487 11.408C71.8283 11.8347 71.999 12.3253 71.999 12.88C71.999 13.6053 71.743 14.1813 71.231 14.608C70.7403 15.0347 70.1537 15.248 69.471 15.248C68.703 15.248 68.1163 15.0133 67.711 14.544C67.327 14.0533 67.135 13.4667 67.135 12.784C67.135 12.1653 67.2843 11.6533 67.583 11.248C67.903 10.8427 68.3403 10.4587 68.895 10.096C69.4923 9.75467 70.207 9.488 71.039 9.296C71.8923 9.104 72.8097 9.008 73.791 9.008C74.7723 9.008 75.6577 9.11467 76.447 9.328C77.2363 9.52 77.8977 9.88267 78.431 10.416C78.9217 10.9067 79.2417 11.5147 79.391 12.24C79.5403 12.944 79.615 13.84 79.615 14.928V23.632C79.615 24.1653 79.6683 24.5387 79.775 24.752C79.8817 24.944 80.063 25.04 80.319 25.04C80.511 25.04 80.6923 24.9867 80.863 24.88C81.055 24.7733 81.2577 24.6453 81.471 24.496L81.791 25.04C81.343 25.424 80.8203 25.7227 80.223 25.936C79.647 26.128 78.9963 26.224 78.271 26.224C77.4817 26.224 76.8523 26.1173 76.383 25.904C75.9137 25.6693 75.5723 25.36 75.359 24.976C75.167 24.592 75.071 24.144 75.071 23.632C74.559 24.4427 73.9403 25.0827 73.215 25.552C72.4897 26 71.6043 26.224 70.559 26.224ZM72.831 24.176C73.2577 24.176 73.6417 24.08 73.983 23.888C74.3457 23.6747 74.687 23.3333 75.007 22.864V16.304C74.815 16.624 74.5483 16.912 74.207 17.168C73.8657 17.424 73.503 17.6907 73.119 17.968C72.735 18.224 72.3617 18.512 71.999 18.832C71.6577 19.152 71.3803 19.5467 71.167 20.016C70.9537 20.4853 70.847 21.0507 70.847 21.712C70.847 22.544 71.0283 23.1627 71.391 23.568C71.7537 23.9733 72.2337 24.176 72.831 24.176ZM89.2335 9.104V28.624C89.2335 29.6267 89.4895 30.288 90.0015 30.608C90.5135 30.9493 91.2175 31.12 92.1135 31.12V31.792C91.5588 31.7707 90.7908 31.7387 89.8095 31.696C88.8495 31.6747 87.8255 31.664 86.7375 31.664C85.9482 31.664 85.1695 31.6747 84.4015 31.696C83.6548 31.7387 83.0895 31.7707 82.7055 31.792V31.12C83.4095 31.12 83.9002 30.9707 84.1775 30.672C84.4762 30.3733 84.6255 29.7973 84.6255 28.944V12.944C84.6255 11.984 84.4762 11.28 84.1775 10.832C83.8788 10.3627 83.3455 10.128 82.5775 10.128V9.456C83.2602 9.52 83.9215 9.552 84.5615 9.552C85.4362 9.552 86.2682 9.52 87.0575 9.456C87.8468 9.37067 88.5722 9.25333 89.2335 9.104ZM94.1935 9.008C95.2815 9.008 96.2522 9.30667 97.1055 9.904C97.9588 10.48 98.6415 11.3653 99.1535 12.56C99.6655 13.7333 99.9215 15.2053 99.9215 16.976C99.9215 18.5333 99.7402 19.8987 99.3775 21.072C99.0362 22.2453 98.5348 23.2373 97.8735 24.048C97.2335 24.8373 96.4548 25.4347 95.5375 25.84C94.6415 26.2453 93.6282 26.448 92.4975 26.448C91.6655 26.448 90.9082 26.2987 90.2255 26C89.5428 25.7227 89.0202 25.3173 88.6575 24.784L88.9775 24.368C89.1908 24.752 89.4895 25.0507 89.8735 25.264C90.2788 25.4773 90.7375 25.584 91.2495 25.584C92.2095 25.584 92.9668 25.264 93.5215 24.624C94.0762 23.9627 94.4708 23.0453 94.7055 21.872C94.9615 20.6773 95.0895 19.2587 95.0895 17.616C95.0895 15.7813 94.9722 14.3413 94.7375 13.296C94.5028 12.2507 94.1828 11.504 93.7775 11.056C93.3722 10.608 92.8815 10.384 92.3055 10.384C91.5375 10.384 90.8335 10.6827 90.1935 11.28C89.5748 11.8773 89.2228 12.7307 89.1375 13.84L88.9775 12.72C89.3615 11.504 90.0122 10.5867 90.9295 9.968C91.8682 9.328 92.9562 9.008 94.1935 9.008ZM108.421 9.104V28.624C108.421 29.6267 108.677 30.288 109.189 30.608C109.701 30.9493 110.405 31.12 111.301 31.12V31.792C110.746 31.7707 109.978 31.7387 108.997 31.696C108.037 31.6747 107.013 31.664 105.925 31.664C105.136 31.664 104.357 31.6747 103.589 31.696C102.842 31.7387 102.277 31.7707 101.893 31.792V31.12C102.597 31.12 103.088 30.9707 103.365 30.672C103.664 30.3733 103.813 29.7973 103.813 28.944V12.944C103.813 11.984 103.664 11.28 103.365 10.832C103.066 10.3627 102.533 10.128 101.765 10.128V9.456C102.448 9.52 103.109 9.552 103.749 9.552C104.624 9.552 105.456 9.52 106.245 9.456C107.034 9.37067 107.76 9.25333 108.421 9.104ZM113.381 9.008C114.469 9.008 115.44 9.30667 116.293 9.904C117.146 10.48 117.829 11.3653 118.341 12.56C118.853 13.7333 119.109 15.2053 119.109 16.976C119.109 18.5333 118.928 19.8987 118.565 21.072C118.224 22.2453 117.722 23.2373 117.061 24.048C116.421 24.8373 115.642 25.4347 114.725 25.84C113.829 26.2453 112.816 26.448 111.685 26.448C110.853 26.448 110.096 26.2987 109.413 26C108.73 25.7227 108.208 25.3173 107.845 24.784L108.165 24.368C108.378 24.752 108.677 25.0507 109.061 25.264C109.466 25.4773 109.925 25.584 110.437 25.584C111.397 25.584 112.154 25.264 112.709 24.624C113.264 23.9627 113.658 23.0453 113.893 21.872C114.149 20.6773 114.277 19.2587 114.277 17.616C114.277 15.7813 114.16 14.3413 113.925 13.296C113.69 12.2507 113.37 11.504 112.965 11.056C112.56 10.608 112.069 10.384 111.493 10.384C110.725 10.384 110.021 10.6827 109.381 11.28C108.762 11.8773 108.41 12.7307 108.325 13.84L108.165 12.72C108.549 11.504 109.2 10.5867 110.117 9.968C111.056 9.328 112.144 9.008 113.381 9.008ZM127.609 0.943998V23.024C127.609 23.92 127.758 24.528 128.057 24.848C128.377 25.168 128.91 25.328 129.657 25.328V26C129.251 25.9787 128.643 25.9573 127.833 25.936C127.022 25.8933 126.201 25.872 125.369 25.872C124.537 25.872 123.694 25.8933 122.841 25.936C122.009 25.9573 121.379 25.9787 120.953 26V25.328C121.699 25.328 122.222 25.168 122.521 24.848C122.841 24.528 123.001 23.92 123.001 23.024V4.784C123.001 3.824 122.851 3.12 122.553 2.672C122.275 2.20267 121.742 1.968 120.953 1.968V1.296C121.635 1.36 122.297 1.392 122.937 1.392C123.811 1.392 124.643 1.36 125.433 1.296C126.222 1.21067 126.947 1.09333 127.609 0.943998ZM138.962 9.008C140.839 9.008 142.311 9.56267 143.378 10.672C144.444 11.7813 144.978 13.5947 144.978 16.112H134.45L134.386 15.504H140.946C140.967 14.4587 140.903 13.4987 140.754 12.624C140.604 11.728 140.37 11.0133 140.05 10.48C139.73 9.94667 139.303 9.68 138.77 9.68C138.023 9.68 137.383 10.1493 136.85 11.088C136.338 12.0267 136.028 13.584 135.922 15.76L136.018 15.952C135.996 16.208 135.975 16.4747 135.954 16.752C135.954 17.0293 135.954 17.3173 135.954 17.616C135.954 19.088 136.156 20.2827 136.562 21.2C136.988 22.1173 137.522 22.7893 138.161 23.216C138.802 23.6213 139.452 23.824 140.114 23.824C140.562 23.824 141.02 23.76 141.49 23.632C141.98 23.4827 142.471 23.2267 142.962 22.864C143.452 22.48 143.911 21.9467 144.338 21.264L144.914 21.456C144.658 22.2667 144.252 23.056 143.698 23.824C143.143 24.592 142.439 25.2213 141.586 25.712C140.732 26.2027 139.708 26.448 138.514 26.448C137.063 26.448 135.783 26.1387 134.674 25.52C133.564 24.9013 132.69 23.9627 132.049 22.704C131.431 21.4453 131.122 19.8453 131.122 17.904C131.122 15.92 131.452 14.2667 132.114 12.944C132.796 11.6213 133.724 10.64 134.898 10C136.092 9.33867 137.447 9.008 138.962 9.008ZM9.976 46.344V46.984C9.29333 47.0053 8.77067 47.0907 8.408 47.24C8.06667 47.368 7.84267 47.624 7.736 48.008C7.62933 48.3707 7.576 48.9467 7.576 49.736V65.608C7.576 66.376 7.62933 66.952 7.736 67.336C7.864 67.72 8.09867 67.976 8.44 68.104C8.78133 68.232 9.29333 68.3173 9.976 68.36V69C9.4 68.9573 8.67467 68.936 7.8 68.936C6.92533 68.9147 6.04 68.904 5.144 68.904C4.09867 68.904 3.128 68.9147 2.232 68.936C1.35733 68.936 0.642667 68.9573 0.0880001 69V68.36C0.770667 68.3173 1.28267 68.232 1.624 68.104C1.96533 67.976 2.18933 67.72 2.296 67.336C2.424 66.952 2.488 66.376 2.488 65.608V49.736C2.488 48.9467 2.424 48.3707 2.296 48.008C2.18933 47.624 1.95467 47.368 1.592 47.24C1.25067 47.0907 0.749333 47.0053 0.0880001 46.984V46.344C0.642667 46.3653 1.35733 46.3867 2.232 46.408C3.128 46.4293 4.09867 46.44 5.144 46.44C6.04 46.44 6.92533 46.4293 7.8 46.408C8.67467 46.3867 9.4 46.3653 9.976 46.344ZM17.9478 52.008C18.8438 52.008 19.6224 52.1253 20.2838 52.36C20.9664 52.5733 21.4571 52.7867 21.7558 53C22.4811 53.4907 22.9291 53.1707 23.0998 52.04H23.7718C23.7291 52.6373 23.6971 53.3733 23.6758 54.248C23.6544 55.1013 23.6438 56.2427 23.6438 57.672H22.9718C22.8651 56.8827 22.6624 56.104 22.3638 55.336C22.0651 54.568 21.6278 53.9387 21.0518 53.448C20.4971 52.9573 19.7718 52.712 18.8758 52.712C18.2571 52.712 17.7344 52.8933 17.3078 53.256C16.8811 53.5973 16.6678 54.0987 16.6678 54.76C16.6678 55.4 16.8598 55.9653 17.2438 56.456C17.6278 56.9253 18.1184 57.384 18.7158 57.832C19.3344 58.2587 19.9744 58.7173 20.6358 59.208C21.3398 59.7413 21.9798 60.2747 22.5558 60.808C23.1318 61.32 23.5904 61.8853 23.9318 62.504C24.2731 63.1227 24.4438 63.8587 24.4438 64.712C24.4438 65.672 24.1664 66.5147 23.6118 67.24C23.0571 67.944 22.3211 68.488 21.4038 68.872C20.5078 69.256 19.5051 69.448 18.3958 69.448C17.7558 69.448 17.1798 69.384 16.6678 69.256C16.1771 69.128 15.7504 68.968 15.3878 68.776C15.1104 68.648 14.8438 68.5307 14.5878 68.424C14.3531 68.296 14.1291 68.1893 13.9158 68.104C13.7024 68.04 13.5104 68.1147 13.3398 68.328C13.1904 68.5413 13.0731 68.84 12.9878 69.224H12.3158C12.3584 68.5413 12.3904 67.7093 12.4118 66.728C12.4331 65.7467 12.4438 64.4453 12.4438 62.824H13.1158C13.2438 63.976 13.4784 65 13.8198 65.896C14.1611 66.7707 14.6198 67.464 15.1958 67.976C15.7931 68.4667 16.5398 68.712 17.4358 68.712C17.7984 68.712 18.1504 68.6373 18.4918 68.488C18.8331 68.3387 19.1104 68.0933 19.3238 67.752C19.5584 67.4107 19.6758 66.9733 19.6758 66.44C19.6758 65.5013 19.3664 64.7227 18.7478 64.104C18.1504 63.4853 17.3824 62.8133 16.4438 62.088C15.7611 61.5333 15.1104 60.9893 14.4918 60.456C13.8944 59.9013 13.4038 59.304 13.0198 58.664C12.6358 58.0027 12.4438 57.256 12.4438 56.424C12.4438 55.464 12.6998 54.6533 13.2118 53.992C13.7238 53.3307 14.3958 52.84 15.2278 52.52C16.0811 52.1787 16.9878 52.008 17.9478 52.008ZM32.921 43.944V66.024C32.921 66.92 33.0703 67.528 33.369 67.848C33.689 68.168 34.2223 68.328 34.969 68.328V69C34.5637 68.9787 33.9557 68.9573 33.145 68.936C32.3343 68.8933 31.513 68.872 30.681 68.872C29.849 68.872 29.0063 68.8933 28.153 68.936C27.321 68.9573 26.6917 68.9787 26.265 69V68.328C27.0117 68.328 27.5343 68.168 27.833 67.848C28.153 67.528 28.313 66.92 28.313 66.024V47.784C28.313 46.824 28.1637 46.12 27.865 45.672C27.5877 45.2027 27.0543 44.968 26.265 44.968V44.296C26.9477 44.36 27.609 44.392 28.249 44.392C29.1237 44.392 29.9557 44.36 30.745 44.296C31.5343 44.2107 32.2597 44.0933 32.921 43.944ZM40.7465 69.224C39.7865 69.224 38.9865 69.0427 38.3465 68.68C37.7065 68.3173 37.2372 67.8373 36.9385 67.24C36.6398 66.6213 36.4905 65.9493 36.4905 65.224C36.4905 64.3067 36.6932 63.56 37.0985 62.984C37.5252 62.408 38.0692 61.9387 38.7305 61.576C39.3918 61.2133 40.0852 60.9147 40.8105 60.68C41.5572 60.4453 42.2612 60.2213 42.9225 60.008C43.6052 59.7733 44.1492 59.5067 44.5545 59.208C44.9812 58.888 45.1945 58.4827 45.1945 57.992V55.496C45.1945 54.9413 45.0985 54.4507 44.9065 54.024C44.7358 53.576 44.4585 53.2347 44.0745 53C43.7118 52.7653 43.2318 52.648 42.6345 52.648C42.2078 52.648 41.7812 52.712 41.3545 52.84C40.9278 52.9467 40.5758 53.1387 40.2985 53.416C40.8958 53.6293 41.3545 53.96 41.6745 54.408C42.0158 54.8347 42.1865 55.3253 42.1865 55.88C42.1865 56.6053 41.9305 57.1813 41.4185 57.608C40.9278 58.0347 40.3412 58.248 39.6585 58.248C38.8905 58.248 38.3038 58.0133 37.8985 57.544C37.5145 57.0533 37.3225 56.4667 37.3225 55.784C37.3225 55.1653 37.4718 54.6533 37.7705 54.248C38.0905 53.8427 38.5278 53.4587 39.0825 53.096C39.6798 52.7547 40.3945 52.488 41.2265 52.296C42.0798 52.104 42.9972 52.008 43.9785 52.008C44.9598 52.008 45.8452 52.1147 46.6345 52.328C47.4238 52.52 48.0852 52.8827 48.6185 53.416C49.1092 53.9067 49.4292 54.5147 49.5785 55.24C49.7278 55.944 49.8025 56.84 49.8025 57.928V66.632C49.8025 67.1653 49.8558 67.5387 49.9625 67.752C50.0692 67.944 50.2505 68.04 50.5065 68.04C50.6985 68.04 50.8798 67.9867 51.0505 67.88C51.2425 67.7733 51.4452 67.6453 51.6585 67.496L51.9785 68.04C51.5305 68.424 51.0078 68.7227 50.4105 68.936C49.8345 69.128 49.1838 69.224 48.4585 69.224C47.6692 69.224 47.0398 69.1173 46.5705 68.904C46.1012 68.6693 45.7598 68.36 45.5465 67.976C45.3545 67.592 45.2585 67.144 45.2585 66.632C44.7465 67.4427 44.1278 68.0827 43.4025 68.552C42.6772 69 41.7918 69.224 40.7465 69.224ZM43.0185 67.176C43.4452 67.176 43.8292 67.08 44.1705 66.888C44.5332 66.6747 44.8745 66.3333 45.1945 65.864V59.304C45.0025 59.624 44.7358 59.912 44.3945 60.168C44.0532 60.424 43.6905 60.6907 43.3065 60.968C42.9225 61.224 42.5492 61.512 42.1865 61.832C41.8452 62.152 41.5678 62.5467 41.3545 63.016C41.1412 63.4853 41.0345 64.0507 41.0345 64.712C41.0345 65.544 41.2158 66.1627 41.5785 66.568C41.9412 66.9733 42.4212 67.176 43.0185 67.176ZM64.797 52.008C65.693 52.008 66.4183 52.1253 66.973 52.36C67.549 52.5733 67.997 52.872 68.317 53.256C68.6583 53.6613 68.9037 54.184 69.053 54.824C69.2237 55.464 69.309 56.328 69.309 57.416V66.024C69.309 66.92 69.4583 67.528 69.757 67.848C70.077 68.168 70.6103 68.328 71.357 68.328V69C70.9517 68.9787 70.3437 68.9573 69.533 68.936C68.7223 68.8933 67.9223 68.872 67.133 68.872C66.3223 68.872 65.5223 68.8933 64.733 68.936C63.965 68.9573 63.3783 68.9787 62.973 69V68.328C63.613 68.328 64.061 68.168 64.317 67.848C64.573 67.528 64.701 66.92 64.701 66.024V56.072C64.701 55.5387 64.6477 55.08 64.541 54.696C64.4343 54.2907 64.2423 53.9813 63.965 53.768C63.6877 53.5333 63.2717 53.416 62.717 53.416C62.141 53.416 61.6077 53.576 61.117 53.896C60.6477 54.216 60.2637 54.664 59.965 55.24C59.6877 55.7947 59.549 56.424 59.549 57.128V66.024C59.549 66.92 59.677 67.528 59.933 67.848C60.2103 68.168 60.6583 68.328 61.277 68.328V69C60.893 68.9787 60.3277 68.9573 59.581 68.936C58.8557 68.8933 58.0983 68.872 57.309 68.872C56.4983 68.872 55.6663 68.8933 54.813 68.936C53.9597 68.9573 53.3197 68.9787 52.893 69V68.328C53.6397 68.328 54.1623 68.168 54.461 67.848C54.781 67.528 54.941 66.92 54.941 66.024V55.944C54.941 54.984 54.7917 54.28 54.493 53.832C54.2157 53.3627 53.6823 53.128 52.893 53.128V52.456C53.5757 52.52 54.237 52.552 54.877 52.552C55.773 52.552 56.605 52.52 57.373 52.456C58.1623 52.3707 58.8877 52.2533 59.549 52.104V54.984C60.0823 53.896 60.8077 53.128 61.725 52.68C62.6423 52.232 63.6663 52.008 64.797 52.008ZM88.2933 43.944V65.48C88.2933 66.44 88.4426 67.1547 88.7413 67.624C89.0399 68.072 89.5733 68.296 90.3413 68.296V68.968C89.6799 68.904 89.0186 68.872 88.3573 68.872C87.4613 68.872 86.6186 68.904 85.8293 68.968C85.0613 69.032 84.3466 69.1493 83.6853 69.32V47.784C83.6853 46.824 83.5359 46.12 83.2373 45.672C82.9599 45.2027 82.4266 44.968 81.6373 44.968V44.296C82.3199 44.36 82.9813 44.392 83.6213 44.392C84.4959 44.392 85.3279 44.36 86.1173 44.296C86.9066 44.2107 87.6319 44.0933 88.2933 43.944ZM80.1333 52.008C81.0719 52.008 81.8933 52.168 82.5973 52.488C83.3226 52.7867 83.8879 53.2987 84.2933 54.024L83.9093 54.376C83.6319 53.864 83.2586 53.5013 82.7893 53.288C82.3413 53.0533 81.8613 52.936 81.3493 52.936C80.2613 52.936 79.3973 53.576 78.7573 54.856C78.1173 56.1147 77.8079 58.0667 77.8293 60.712C77.8293 62.5253 77.9466 63.976 78.1813 65.064C78.4373 66.1307 78.7893 66.8987 79.2373 67.368C79.7066 67.8373 80.2399 68.072 80.8373 68.072C81.5626 68.072 82.2133 67.784 82.7893 67.208C83.3653 66.632 83.6746 65.8533 83.7173 64.872L83.8773 65.992C83.5573 67.1227 83.0346 67.9867 82.3093 68.584C81.6053 69.16 80.6773 69.448 79.5253 69.448C78.2666 69.448 77.1359 69.1387 76.1333 68.52C75.1519 67.9013 74.3839 66.952 73.8293 65.672C73.2746 64.3707 72.9973 62.696 72.9973 60.648C72.9973 58.7067 73.3066 57.1067 73.9253 55.848C74.5439 54.568 75.3866 53.608 76.4533 52.968C77.5413 52.328 78.7679 52.008 80.1333 52.008Z" fill="#0E204E"/>
</svg>
